<svg width="24" height="24" viewBox="0 0 24 24" fill="none" xmlns="http://www.w3.org/2000/svg">
<path fill-rule="evenodd" clip-rule="evenodd" d="M15.875 3.125C16.6562 3.125 17.1016 3.53125 17.1641 4.25781H6.85938C6.91406 3.53125 7.35938 3.125 8.14844 3.125H15.875ZM17.3047 5.39062C18.1875 5.39062 18.5938 5.85156 18.7031 6.625H5.32031C5.42188 5.85156 5.82812 5.39062 6.71094 5.39062H17.3047ZM17.8672 21.5703C19.6016 21.5703 20.5312 20.6484 20.5312 18.9219V10.5703C20.5312 8.85156 19.6016 7.92969 17.8672 7.92969H6.13281C4.39844 7.92969 3.46875 8.85156 3.46875 10.5703V18.9219C3.46875 20.6484 4.39844 21.5703 6.13281 21.5703H17.8672ZM6.29688 19.7812H17.7031C18.375 19.7812 18.7422 19.4375 18.7422 18.7266V10.7656C18.7422 10.0547 18.375 9.71875 17.7031 9.71875H6.29688C5.61719 9.71875 5.25781 10.0547 5.25781 10.7656V18.7266C5.25781 19.4375 5.61719 19.7812 6.29688 19.7812Z" fill="currentColor"/>
</svg>
