<?xml version="1.0" encoding="UTF-8"?>
<svg width="24px" height="24px" viewBox="0 0 24 24" version="1.1" xmlns="http://www.w3.org/2000/svg" xmlns:xlink="http://www.w3.org/1999/xlink">
    <title>arrow_left</title>
    <g id="06_assets" stroke="none" stroke-width="1" fill="none" fill-rule="evenodd">
        <g id="04_25_22" transform="translate(-169.000000, -22.000000)">
            <g id="arrow_left" transform="translate(169.000000, 22.000000)">
                <rect id="frame" x="0" y="0" width="24" height="24"></rect>
                <path d="M10.6367188,18.5078125 C11.2148438,18.5078125 11.6210938,18.1015625 11.6210938,17.5546875 C11.6210938,17.2578125 11.4960938,17.0234375 11.3164062,16.8359375 L9.55078125,15.0625 L7.56640625,13.2421875 L9.32421875,13.34375 L18.4804688,13.34375 C19.0898438,13.34375 19.5039062,12.9375 19.5039062,12.34375 C19.5039062,11.75 19.0898438,11.34375 18.4804688,11.34375 L9.32421875,11.34375 L7.56640625,11.4375 L9.55078125,9.625 L11.3164062,7.84375 C11.5039062,7.65625 11.6210938,7.421875 11.6210938,7.125 C11.6210938,6.5859375 11.2148438,6.171875 10.6367188,6.171875 C10.3867188,6.171875 10.1445312,6.2734375 9.91796875,6.4921875 L4.80859375,11.6015625 C4.61328125,11.7890625 4.49609375,12.0703125 4.49609375,12.34375 C4.49609375,12.6171875 4.61328125,12.890625 4.80859375,13.0859375 L9.93359375,18.1953125 C10.1445312,18.40625 10.3867188,18.5078125 10.6367188,18.5078125 Z" id="shape" fill="currentColor" fill-rule="nonzero"></path>
            </g>
        </g>
    </g>
</svg>
