<?xml version="1.0" encoding="UTF-8"?>
<svg width="24px" height="24px" viewBox="0 0 24 24" version="1.1" xmlns="http://www.w3.org/2000/svg" xmlns:xlink="http://www.w3.org/1999/xlink">
    <title>card</title>
    <g id="02_assets" stroke="none" stroke-width="1" fill="none" fill-rule="evenodd">
        <g id="00_desktop" transform="translate(-252.000000, -452.000000)">
            <g id="00_vectors" transform="translate(180.000000, 316.000000)">
                <g id="00_action" transform="translate(0.000000, 64.000000)">
                    <g id="card" transform="translate(72.000000, 72.000000)">
                        <rect id="frame" x="0" y="0" width="24" height="24"></rect>
                        <path d="M18.625,19.7578125 C20.3671875,19.7578125 21.2890625,18.828125 21.2890625,17.109375 L21.2890625,7.625 C21.2890625,5.90625 20.3671875,4.984375 18.625,4.984375 L5.375,4.984375 C3.640625,4.984375 2.7109375,5.90625 2.7109375,7.625 L2.7109375,17.109375 C2.7109375,18.8359375 3.640625,19.7578125 5.375,19.7578125 L18.625,19.7578125 Z M19.5,8.921875 L4.5,8.921875 L4.5,7.8203125 C4.5,7.109375 4.859375,6.7734375 5.5390625,6.7734375 L18.4609375,6.7734375 C19.1328125,6.7734375 19.5,7.109375 19.5,7.8203125 L19.5,8.921875 Z M18.4609375,17.96875 L5.5390625,17.96875 C4.859375,17.96875 4.5,17.625 4.5,16.9140625 L4.5,10.796875 L19.5,10.796875 L19.5,16.9140625 C19.5,17.625 19.1328125,17.96875 18.4609375,17.96875 Z M8.703125,16.4453125 C9.1640625,16.4453125 9.4765625,16.1328125 9.4765625,15.6953125 L9.4765625,14.25 C9.4765625,13.8046875 9.1640625,13.5 8.703125,13.5 L6.7890625,13.5 C6.3359375,13.5 6.0234375,13.8046875 6.0234375,14.25 L6.0234375,15.6953125 C6.0234375,16.1328125 6.3359375,16.4453125 6.7890625,16.4453125 L8.703125,16.4453125 Z" id="shape" fill="#FFFFFF" fill-rule="nonzero"></path>
                    </g>
                </g>
            </g>
        </g>
    </g>
</svg>