<svg width="24" height="24" viewBox="0 0 24 24" fill="none" xmlns="http://www.w3.org/2000/svg">
<path fill-rule="evenodd" clip-rule="evenodd" d="M19.1285 20.1656C20.9414 20.1656 21.8848 19.2223 21.8848 17.434V9.35389C21.8848 7.55741 20.9414 6.61405 19.1285 6.61405H17.0695V5.89218C17.0695 4.34178 16.2082 3.5871 14.6168 3.5871H9.39141C7.84922 3.5871 6.93867 4.34178 6.93867 5.89218V6.61405H4.87969C3.0668 6.61405 2.11523 7.55741 2.11523 9.35389V17.434C2.11523 19.2223 3.0668 20.1656 4.87969 20.1656H19.1285ZM15.3809 6.61405H8.62148V5.85116C8.62148 5.35897 8.9168 5.08007 9.4418 5.08007H14.5605C15.0855 5.08007 15.3809 5.35897 15.3809 5.85116V6.61405ZM4.9793 18.3937H19.023C19.6711 18.3937 20.0156 18.0574 20.0156 17.393V9.38671C20.0156 8.72225 19.6711 8.38593 19.023 8.38593H4.9793C4.33945 8.38593 3.99492 8.72225 3.99492 9.38671V17.393C3.99492 18.0574 4.33945 18.3937 4.9793 18.3937Z" fill="#E0E0FF" fill-opacity="0.6"/>
</svg>
