<?xml version="1.0" encoding="UTF-8"?>
<svg width="24px" height="24px" viewBox="0 0 24 24" version="1.1" xmlns="http://www.w3.org/2000/svg" xmlns:xlink="http://www.w3.org/1999/xlink">
    <title>chevron_down</title>
    <g id="06_assets" stroke="none" stroke-width="1" fill="none" fill-rule="evenodd">
        <g id="04_25_22" transform="translate(-331.000000, -22.000000)">
            <g id="chevron_down" transform="translate(331.000000, 22.000000)">
                <rect id="frame" x="0" y="0" width="24" height="24"></rect>
                <path d="M11.9960938,16.75 C12.3320312,16.75 12.6210938,16.6171875 12.8789062,16.359375 L18.7304688,10.359375 C18.9335938,10.15625 19.0429688,9.90625 19.0429688,9.609375 C19.0429688,9 18.5585938,8.515625 17.9570312,8.515625 C17.6601562,8.515625 17.3789062,8.6328125 17.1601562,8.8515625 L12.0039062,14.1640625 L6.83984375,8.8515625 C6.62109375,8.640625 6.34765625,8.515625 6.04296875,8.515625 C5.44140625,8.515625 4.95703125,9 4.95703125,9.609375 C4.95703125,9.90625 5.06640625,10.15625 5.26953125,10.3671875 L11.1210938,16.359375 C11.3945312,16.625 11.6679688,16.75 11.9960938,16.75 Z" id="shape" fill="currentColor" fill-rule="nonzero"></path>
            </g>
        </g>
    </g>
</svg>
