<svg width="24" height="24" viewBox="0 0 24 24" fill="none" xmlns="http://www.w3.org/2000/svg">
<path fill-rule="evenodd" clip-rule="evenodd" d="M13.9297 22.0703C15.6562 22.0703 16.5781 21.1406 16.5781 19.4062V17.9688H17.8672C19.5938 17.9688 20.5156 17.0312 20.5156 15.2969V9.25C20.5156 8.16406 20.2812 7.46875 19.6406 6.80469L15.7812 2.875C15.1641 2.25 14.4297 2 13.4688 2H10.5781C8.85938 2 7.9375 2.92969 7.9375 4.66406V6.10938H6.64844C4.92188 6.10938 4 7.03906 4 8.77344V19.4062C4 21.1484 4.92188 22.0703 6.64844 22.0703H13.9297ZM17.6719 16.1797H16.5781V13.4766C16.5781 12.3906 16.4297 11.8516 15.75 11.1641L11.5703 6.92969C11.0078 6.35156 10.5 6.15625 9.72656 6.11719V4.82812C9.72656 4.15625 10.0625 3.78906 10.7734 3.78906H13.875V7.27344C13.875 8.29688 14.4531 8.86719 15.4688 8.86719H18.7266V15.1406C18.7266 15.8125 18.3828 16.1797 17.6719 16.1797ZM15.6641 7.45312H18.2578L15.2891 4.44531V7.07812C15.2891 7.33594 15.3984 7.45312 15.6641 7.45312ZM13.7344 20.2891H6.83594C6.125 20.2891 5.78906 19.9219 5.78906 19.2422V8.9375C5.78906 8.26562 6.125 7.89844 6.83594 7.89844H9.08594V11.9297C9.08594 13.1797 9.69531 13.7734 10.9297 13.7734H14.7891V19.2422C14.7891 19.9219 14.4453 20.2891 13.7344 20.2891ZM11.0781 12.2656H14.6016L10.6016 8.20312V11.7812C10.6016 12.1172 10.75 12.2656 11.0781 12.2656Z" fill="currentColor" fill-opacity="0.4"/>
</svg>
