<svg width="25" height="24" viewBox="0 0 25 24" fill="none" xmlns="http://www.w3.org/2000/svg">
<g opacity="0.6">
<path fill-rule="evenodd" clip-rule="evenodd" d="M13.7929 1.29289C14.1834 0.902369 14.8166 0.902369 15.2071 1.29289L19.2071 5.29289C19.5976 5.68342 19.5976 6.31658 19.2071 6.70711L8.20711 17.7071C8.01957 17.8946 7.76522 18 7.5 18H3.5C2.94772 18 2.5 17.5523 2.5 17V13C2.5 12.7348 2.60536 12.4804 2.79289 12.2929L13.7929 1.29289ZM4.5 13.4142V16H7.08579L17.0858 6L14.5 3.41421L4.5 13.4142Z" fill="white"/>
<path fill-rule="evenodd" clip-rule="evenodd" d="M2.5 22C2.5 21.4477 2.94772 21 3.5 21H21.5C22.0523 21 22.5 21.4477 22.5 22C22.5 22.5523 22.0523 23 21.5 23H3.5C2.94772 23 2.5 22.5523 2.5 22Z" fill="white"/>
</g>
</svg>
