<?xml version="1.0" encoding="UTF-8"?>
<svg width="24px" height="24px" viewBox="0 0 24 24" version="1.1" xmlns="http://www.w3.org/2000/svg" xmlns:xlink="http://www.w3.org/1999/xlink">
    <title>ethereum</title>
    <g id="06_assets" stroke="none" stroke-width="1" fill="none" fill-rule="evenodd">
        <g id="04_25_22" transform="translate(-212.000000, -22.000000)">
            <g id="ethereum" transform="translate(212.000000, 22.000000)">
                <rect id="frame" x="0" y="0" width="24" height="24"></rect>
                <path d="M12,2 C17.5228475,2 22,6.4771525 22,12 C22,17.5228475 17.5228475,22 12,22 C6.4771525,22 2,17.5228475 2,12 C2,6.4771525 6.4771525,2 12,2 Z" id="shape" fill="#464A75" fill-rule="nonzero"></path>
                <path d="M11.8425,15.31625 L7.6,12.81 L11.8416667,18.79 L16.0883333,12.81 L11.8408333,15.31625 L11.8425,15.31625 Z M11.9070833,4.96291667 L7.66333333,12.005 L11.9066667,14.5133333 L16.15,12.0075 L11.9070833,4.9625 L11.9070833,4.96291667 Z" id="shape" fill="#FFFFFF" fill-rule="nonzero"></path>
            </g>
        </g>
    </g>
</svg>