<?xml version="1.0" encoding="UTF-8"?>
<svg width="20px" height="20px" viewBox="0 0 20 20" version="1.1" xmlns="http://www.w3.org/2000/svg" xmlns:xlink="http://www.w3.org/1999/xlink">
    <title>external</title>
    <g id="06_assets" stroke="none" stroke-width="1" fill="none" fill-rule="evenodd">
        <g id="05_10_22" transform="translate(-591.000000, -124.000000)">
            <g id="external" transform="translate(591.000000, 124.000000)">
                <rect id="frame" x="0" y="0" width="20" height="20"></rect>
                <path d="M5.87109375,16.5175781 L14.1289062,16.5175781 C15.6464844,16.5175781 16.4462891,15.7246094 16.4462891,14.2275391 L16.4462891,5.921875 C16.4462891,4.42480469 15.6464844,3.625 14.1289062,3.625 L5.87109375,3.625 C4.36035156,3.625 3.55371094,4.42480469 3.55371094,5.921875 L3.55371094,14.2275391 C3.55371094,15.7246094 4.36035156,16.5175781 5.87109375,16.5175781 Z M6.00097656,15 C5.39941406,15 5.078125,14.6923828 5.078125,14.0634766 L5.078125,6.07910156 C5.078125,5.45019531 5.39941406,5.14941406 6.00097656,5.14941406 L14.0058594,5.14941406 C14.59375,5.14941406 14.9287109,5.45019531 14.9287109,6.07910156 L14.9287109,14.0634766 C14.9287109,14.6923828 14.59375,15 14.0058594,15 L6.00097656,15 Z M12.1259766,11.9101562 C12.4951172,11.9101562 12.734375,11.6367188 12.734375,11.2402344 L12.734375,8.08886719 C12.734375,7.57617188 12.4404297,7.32324219 11.9550781,7.32324219 L8.796875,7.32324219 C8.38671875,7.32324219 8.12695312,7.55566406 8.12695312,7.93164062 C8.12695312,8.30078125 8.39355469,8.53320312 8.796875,8.53320312 L9.88378906,8.53320312 L10.765625,8.43066406 L9.78808594,9.30566406 L7.484375,11.6162109 C7.35449219,11.7460938 7.27246094,11.9238281 7.27246094,12.1015625 C7.27246094,12.5048828 7.55957031,12.7646484 7.93554688,12.7646484 C8.140625,12.7646484 8.3046875,12.6962891 8.44824219,12.5527344 L10.7451172,10.2626953 L11.6201172,9.29882812 L11.5175781,10.2216797 L11.5175781,11.2402344 C11.5175781,11.6503906 11.7568359,11.9101562 12.1259766,11.9101562 Z" id="shape" fill="currentColor" fill-rule="nonzero"></path>
            </g>
        </g>
    </g>
</svg>
