<?xml version="1.0" encoding="UTF-8"?>
<svg width="24px" height="24px" viewBox="0 0 24 24" version="1.1" xmlns="http://www.w3.org/2000/svg" xmlns:xlink="http://www.w3.org/1999/xlink">
    <title>list</title>
    <g id="06_assets" stroke="none" stroke-width="1" fill="none" fill-rule="evenodd">
        <g id="04_25_22" transform="translate(-242.000000, -22.000000)">
            <g id="list" transform="translate(242.000000, 22.000000)">
                <rect id="frame" x="0" y="0" width="24" height="24"></rect>
                <path d="M4.98046875,8.7109375 C5.64453125,8.7109375 6.18359375,8.1640625 6.18359375,7.5 C6.18359375,6.8359375 5.64453125,6.2890625 4.98046875,6.2890625 C4.30859375,6.2890625 3.76953125,6.8359375 3.76953125,7.5 C3.76953125,8.1640625 4.30859375,8.7109375 4.98046875,8.7109375 Z M19.3789062,8.34375 C19.8554688,8.34375 20.2304688,7.9765625 20.2304688,7.5 C20.2304688,7.03125 19.8554688,6.65625 19.3789062,6.65625 L8.82421875,6.65625 C8.34765625,6.65625 7.97265625,7.0234375 7.97265625,7.5 C7.97265625,7.9765625 8.34765625,8.34375 8.82421875,8.34375 L19.3789062,8.34375 Z M4.98046875,13.578125 C5.64453125,13.578125 6.18359375,13.03125 6.18359375,12.3671875 C6.18359375,11.703125 5.64453125,11.15625 4.98046875,11.15625 C4.30859375,11.15625 3.76953125,11.703125 3.76953125,12.3671875 C3.76953125,13.03125 4.30859375,13.578125 4.98046875,13.578125 Z M19.3789062,13.2109375 C19.8554688,13.2109375 20.2304688,12.84375 20.2304688,12.3671875 C20.2304688,11.8984375 19.8554688,11.5234375 19.3789062,11.5234375 L8.82421875,11.5234375 C8.34765625,11.5234375 7.97265625,11.890625 7.97265625,12.3671875 C7.97265625,12.84375 8.34765625,13.2109375 8.82421875,13.2109375 L19.3789062,13.2109375 Z M4.98046875,18.4453125 C5.64453125,18.4453125 6.18359375,17.8984375 6.18359375,17.234375 C6.18359375,16.5703125 5.64453125,16.0234375 4.98046875,16.0234375 C4.30859375,16.0234375 3.76953125,16.5703125 3.76953125,17.234375 C3.76953125,17.8984375 4.30859375,18.4453125 4.98046875,18.4453125 Z M19.3789062,18.078125 C19.8554688,18.078125 20.2304688,17.7109375 20.2304688,17.234375 C20.2304688,16.765625 19.8554688,16.390625 19.3789062,16.390625 L8.82421875,16.390625 C8.34765625,16.390625 7.97265625,16.7578125 7.97265625,17.234375 C7.97265625,17.7109375 8.34765625,18.078125 8.82421875,18.078125 L19.3789062,18.078125 Z" id="shape" fill="#FFFFFF" fill-rule="nonzero"></path>
            </g>
        </g>
    </g>
</svg>