<?xml version="1.0" encoding="UTF-8"?>
<svg width="24px" height="24px" viewBox="0 0 24 24" version="1.1" xmlns="http://www.w3.org/2000/svg" xmlns:xlink="http://www.w3.org/1999/xlink">
    <title>menu</title>
    <g id="02_assets" stroke="none" stroke-width="1" fill="none" fill-rule="evenodd">
        <g id="00_desktop" transform="translate(-444.000000, -452.000000)">
            <g id="00_vectors" transform="translate(180.000000, 316.000000)">
                <g id="00_action" transform="translate(0.000000, 64.000000)">
                    <g id="menu" transform="translate(264.000000, 72.000000)">
                        <rect id="frame" x="0" y="0" width="24" height="24"></rect>
                        <path d="M19.296875,9.5546875 C19.7421875,9.5546875 20.1015625,9.1796875 20.1015625,8.734375 C20.1015625,8.28125 19.75,7.9140625 19.296875,7.9140625 L4.703125,7.9140625 C4.25,7.9140625 3.8984375,8.2890625 3.8984375,8.734375 C3.8984375,9.171875 4.2578125,9.5546875 4.703125,9.5546875 L19.296875,9.5546875 Z M19.296875,13.1875 C19.7421875,13.1875 20.1015625,12.8125 20.1015625,12.3671875 C20.1015625,11.9140625 19.75,11.546875 19.296875,11.546875 L4.703125,11.546875 C4.25,11.546875 3.8984375,11.921875 3.8984375,12.3671875 C3.8984375,12.8046875 4.2578125,13.1875 4.703125,13.1875 L19.296875,13.1875 Z M19.296875,16.828125 C19.7421875,16.828125 20.1015625,16.4453125 20.1015625,16 C20.1015625,15.546875 19.75,15.1796875 19.296875,15.1796875 L4.703125,15.1796875 C4.25,15.1796875 3.8984375,15.5546875 3.8984375,16 C3.8984375,16.4375 4.2578125,16.828125 4.703125,16.828125 L19.296875,16.828125 Z" id="shape" fill-opacity="0.8" fill="currentColor" fill-rule="nonzero"></path>
                    </g>
                </g>
            </g>
        </g>
    </g>
</svg>
