<svg width="48" height="48" viewBox="0 0 48 48" xmlns="http://www.w3.org/2000/svg">
    <g fill="none" fill-rule="evenodd">
        <path d="M0 0h48v48H0z"/>
        <path d="m41.162 30.246 4.43-6.17c.879-1.195.474-2.32-.967-2.32h-2.514c-1.09-8.877-8.841-16.067-18.263-16.067-4.993 0-9.545 2.127-12.744 5.415-1.002.914-1.002 2.18-.282 2.935.739.809 1.934.95 3.041 0a13.92 13.92 0 0 1 9.985-4.219c7.242 0 13.043 5.274 14.097 11.936h-2.742c-1.406 0-1.828 1.125-.967 2.32l4.448 6.17c.685.967 1.775.967 2.478 0zm-17.314 12.2c5.027 0 9.58-2.128 12.779-5.415.984-.931.984-2.197.281-2.953-.756-.808-1.933-.932-3.058.018a13.87 13.87 0 0 1-10.002 4.218c-7.225 0-13.026-5.255-14.08-11.935h2.707c1.423 0 1.828-1.125.966-2.303l-4.43-6.187c-.702-.967-1.792-.967-2.478 0l-4.447 6.17c-.861 1.195-.475 2.32.967 2.32h2.549c1.09 8.877 8.841 16.066 18.246 16.066z" fill="#212429" fill-rule="nonzero"/>
    </g>
</svg>
