<svg width="24" height="24" viewBox="0 0 24 24" xmlns="http://www.w3.org/2000/svg">
    <g fill="none" fill-rule="evenodd">
        <path d="M0 0h24v24H0z"/>
        <path d="M11.996 19.07c.57 0 1.04-.484 1.04-1.015v-4.649h4.554c.547 0 1.023-.469 1.023-1.039 0-.562-.476-1.039-1.023-1.039h-4.555V6.68c0-.547-.469-1.016-1.039-1.016-.562 0-1.031.469-1.031 1.016v4.648H6.41c-.531 0-1.023.477-1.023 1.04 0 .57.492 1.038 1.023 1.038h4.555v4.649c0 .53.469 1.015 1.031 1.015z" fill="currentColor" fill-rule="nonzero"/>
    </g>
</svg>
