<svg width="24" height="24" viewBox="0 0 24 24" xmlns="http://www.w3.org/2000/svg">
    <g fill="none" fill-rule="evenodd">
        <path d="M0 0h24v24H0z"/>
        <path d="M12 20.531c4.477 0 8.164-3.695 8.164-8.172 0-4.476-3.695-8.164-8.164-8.164-4.477 0-8.164 3.688-8.164 8.164 0 4.477 3.687 8.172 8.164 8.172zm0-1.836a6.312 6.312 0 0 1-6.32-6.336A6.3 6.3 0 0 1 12 6.031a6.323 6.323 0 0 1 6.336 6.328A6.325 6.325 0 0 1 12 18.695zm-.188-4.836c.461 0 .766-.25.805-.578.008-.023.008-.062.016-.086.039-.383.336-.64.812-.953.782-.5 1.235-.945 1.235-1.828 0-1.297-1.18-2.078-2.617-2.078-1.336 0-2.266.586-2.532 1.336a1.14 1.14 0 0 0-.086.43c0 .39.313.671.75.671.47 0 .602-.234.82-.484.25-.351.547-.555.962-.555.546 0 .898.313.898.774 0 .445-.328.695-.969 1.14-.554.383-.937.774-.937 1.422v.078c0 .47.297.711.844.711zm-.007 2.454c.547 0 .976-.368.976-.899 0-.523-.43-.89-.976-.89-.547 0-.985.367-.985.89 0 .531.438.899.985.899z" fill="currentColor" fill-rule="nonzero"/>
    </g>
</svg>
