<?xml version="1.0" encoding="UTF-8"?>
<svg width="24px" height="24px" viewBox="0 0 24 24" version="1.1" xmlns="http://www.w3.org/2000/svg" xmlns:xlink="http://www.w3.org/1999/xlink">
    <title>shield</title>
    <g id="02_assets" stroke="none" stroke-width="1" fill="none" fill-rule="evenodd">
        <g id="00_desktop" transform="translate(-300.000000, -452.000000)">
            <g id="00_vectors" transform="translate(180.000000, 316.000000)">
                <g id="00_action" transform="translate(0.000000, 64.000000)">
                    <g id="shield" transform="translate(120.000000, 72.000000)">
                        <rect id="frame" x="0" y="0" width="24" height="24"></rect>
                        <path d="M11.9960938,20.5390625 C12.1445312,20.5390625 12.3632812,20.4765625 12.5664062,20.3671875 C17.1054688,17.9609375 18.6914062,16.7734375 18.6914062,13.9296875 L18.6914062,8.09375 C18.6914062,7.0625 18.3242188,6.6640625 17.4414062,6.2890625 C16.6210938,5.9453125 13.7539062,4.9609375 12.9648438,4.703125 C12.6679688,4.6015625 12.3007812,4.5390625 11.9960938,4.5390625 C11.6914062,4.5390625 11.3320312,4.6171875 11.0273438,4.703125 C10.2382812,4.921875 7.37109375,5.953125 6.55078125,6.2890625 C5.66796875,6.6640625 5.30078125,7.0625 5.30078125,8.09375 L5.30078125,13.9296875 C5.30078125,16.7734375 6.89453125,17.953125 11.4257812,20.3671875 C11.6289062,20.4765625 11.8476562,20.5390625 11.9960938,20.5390625 Z M11.9960938,18.6875 C11.8945312,18.6875 11.8007812,18.65625 11.5820312,18.515625 C8.04296875,16.3515625 6.98046875,15.8125 6.98046875,13.640625 L6.98046875,8.34375 C6.98046875,8.0546875 7.04296875,7.9375 7.26171875,7.8515625 C8.38671875,7.3984375 10.5820312,6.671875 11.4960938,6.3203125 C11.7226562,6.2421875 11.8632812,6.2109375 11.9960938,6.2109375 C12.1367188,6.2109375 12.2773438,6.2421875 12.5039062,6.3203125 C13.4101562,6.671875 15.5976562,7.4375 16.7304688,7.8515625 C16.9570312,7.9296875 17.0195312,8.0546875 17.0195312,8.34375 L17.0195312,13.640625 C17.0195312,15.84375 15.8710938,16.4453125 12.4179688,18.515625 C12.1992188,18.6484375 12.0976562,18.6875 11.9960938,18.6875 Z M11.1757812,15.8125 C11.4726562,15.8125 11.7382812,15.65625 11.9101562,15.390625 L15.4023438,10.0078125 C15.5195312,9.8359375 15.6054688,9.640625 15.6054688,9.4609375 C15.6054688,9.0390625 15.2304688,8.7421875 14.8242188,8.7421875 C14.5585938,8.7421875 14.3320312,8.890625 14.1523438,9.1796875 L11.1523438,13.9609375 L9.76953125,12.2421875 C9.58203125,12 9.38671875,11.9140625 9.13671875,11.9140625 C8.71484375,11.9140625 8.37890625,12.2421875 8.37890625,12.6640625 C8.37890625,12.8671875 8.45703125,13.046875 8.60546875,13.234375 L10.3945312,15.3984375 C10.6210938,15.671875 10.8632812,15.8125 11.1757812,15.8125 Z" id="shape" fill="#FFFFFF" fill-rule="nonzero"></path>
                    </g>
                </g>
            </g>
        </g>
    </g>
</svg>