<svg width="24" height="24" viewBox="0 0 24 24" fill="none" xmlns="http://www.w3.org/2000/svg">
<path fill-rule="evenodd" clip-rule="evenodd" d="M15.6328 4.05469C16.3652 4.05469 16.7827 4.43555 16.8413 5.1167H7.18066C7.23193 4.43555 7.64941 4.05469 8.38916 4.05469H15.6328ZM16.9717 6.17871C17.7993 6.17871 18.1802 6.61084 18.2827 7.33594H5.73633C5.83154 6.61084 6.2124 6.17871 7.04004 6.17871H16.9717ZM17.5005 21.3472C19.1265 21.3472 19.998 20.4829 19.998 18.8643V11.0347C19.998 9.42334 19.1265 8.55908 17.5005 8.55908H6.49951C4.87354 8.55908 4.00195 9.42334 4.00195 11.0347V18.8643C4.00195 20.4829 4.87354 21.3472 6.49951 21.3472H17.5005ZM6.65186 19.6699H17.3452C17.9751 19.6699 18.3193 19.3477 18.3193 18.6812V11.2178C18.3193 10.5513 17.9751 10.2363 17.3452 10.2363H6.65186C6.01465 10.2363 5.67773 10.5513 5.67773 11.2178V18.6812C5.67773 19.3477 6.01465 19.6699 6.65186 19.6699ZM9.14209 14.4697C9.2373 14.4697 9.3252 14.3965 9.33984 14.3013C9.47769 13.2348 9.49336 13.2319 10.5757 13.0326L10.6069 13.0269C10.7168 13.0049 10.7827 12.9316 10.7827 12.8291C10.7827 12.7266 10.7095 12.646 10.6069 12.6313C9.5083 12.4775 9.479 12.4702 9.33984 11.3643C9.3252 11.2617 9.24463 11.1958 9.14209 11.1958C9.03223 11.1958 8.95898 11.2617 8.94434 11.3716C8.81301 12.4222 8.7907 12.4263 7.68294 12.629L7.66992 12.6313C7.56738 12.6533 7.49414 12.7339 7.49414 12.8291C7.49414 12.939 7.56738 13.0049 7.68457 13.0269C8.79053 13.1953 8.8125 13.2246 8.94434 14.2866C8.95898 14.3965 9.03223 14.4697 9.14209 14.4697ZM13.4634 18.4761C13.4414 18.6226 13.3315 18.7178 13.1924 18.7178C13.0459 18.7178 12.9434 18.6226 12.9214 18.4761C12.5918 16.2495 12.3062 15.9785 10.1455 15.6929C9.99902 15.6782 9.89648 15.5684 9.89648 15.4219C9.89648 15.2754 9.9917 15.1655 10.1455 15.1509C12.3135 14.9092 12.6211 14.5942 12.9214 12.375C12.9434 12.2212 13.0532 12.1333 13.1924 12.1333C13.3315 12.1333 13.4414 12.2285 13.4634 12.375C13.7783 14.6089 14.0859 14.8945 16.2319 15.1509C16.3857 15.1655 16.4883 15.2754 16.4883 15.4219C16.4883 15.5684 16.3784 15.6782 16.2246 15.6929C14.064 15.9346 13.7563 16.2495 13.4634 18.4761Z" fill="currentColor" fill-opacity="0.6"/>
</svg>
