<svg width="24" height="24" viewBox="0 0 24 24" fill="none" xmlns="http://www.w3.org/2000/svg">
<path fill-rule="evenodd" clip-rule="evenodd" d="M12.6318 21.0625L20.3193 13.3672C20.9522 12.7344 21.0303 12.3438 21.0303 11.4062V8.44531C21.0303 7.5625 20.8193 7.22656 20.1553 6.5625L18.3662 4.77344C17.7022 4.10938 17.3662 3.89844 16.4834 3.89844H13.5225C12.585 3.89844 12.21 3.99219 11.5772 4.625L3.87403 12.3125C2.6709 13.5234 2.65528 14.8281 3.88184 16.0469L8.89746 21.0547C10.124 22.2812 11.4209 22.2734 12.6318 21.0625ZM10.0225 19.6562L5.28028 14.9219C4.78028 14.4219 4.7959 13.9219 5.28028 13.4453L12.8506 5.875C13.0068 5.71875 13.1475 5.64062 13.3897 5.64062H16.4209C16.6475 5.64062 16.8037 5.71875 16.9522 5.86719L19.0615 7.97656C19.21 8.11719 19.2881 8.28125 19.2881 8.50781V11.5391C19.2881 11.7969 19.2178 11.9375 19.0693 12.0938L11.499 19.6641C11.0147 20.1406 10.5225 20.1562 10.0225 19.6562ZM16.6318 9.46094C16.6318 10.1172 16.124 10.6328 15.4678 10.6328C14.8037 10.6328 14.2959 10.1172 14.2959 9.46094C14.2959 8.8125 14.8037 8.29688 15.4678 8.29688C16.124 8.29688 16.6318 8.8125 16.6318 9.46094Z" fill="currentColor" fill-opacity="0.6"/>
</svg>
