<?xml version="1.0" encoding="UTF-8"?>
<svg width="24px" height="24px" viewBox="0 0 24 24" version="1.1" xmlns="http://www.w3.org/2000/svg" xmlns:xlink="http://www.w3.org/1999/xlink">
    <title>twitter</title>
    <g id="06_assets" stroke="none" stroke-width="1" fill="none" fill-rule="evenodd">
        <g id="assets" transform="translate(-704.000000, -2570.000000)">
            <g id="twitter" transform="translate(704.000000, 2570.000000)">
                <rect id="frame" x="0" y="0" width="24" height="24"></rect>
                <path d="M8.28,20.126 C15.824,20.126 19.952,13.87 19.952,8.454 C19.952,8.278 19.952,8.102 19.944,7.926 C20.744,7.35 21.44,6.622 21.992,5.798 C21.256,6.126 20.464,6.342 19.632,6.446 C20.48,5.942 21.128,5.134 21.44,4.174 C20.648,4.646 19.768,4.982 18.832,5.166 C18.08,4.366 17.016,3.87 15.84,3.87 C13.576,3.87 11.736,5.71 11.736,7.974 C11.736,8.294 11.776,8.606 11.84,8.91 C8.432,8.742 5.408,7.102 3.384,4.622 C3.032,5.23 2.832,5.934 2.832,6.686 C2.832,8.11 3.56,9.366 4.656,10.102 C3.984,10.078 3.352,9.894 2.8,9.59 C2.8,9.606 2.8,9.622 2.8,9.646 C2.8,11.63 4.216,13.294 6.088,13.67 C5.744,13.766 5.384,13.814 5.008,13.814 C4.744,13.814 4.488,13.79 4.24,13.742 C4.76,15.374 6.28,16.558 8.072,16.59 C6.664,17.694 4.896,18.35 2.976,18.35 C2.648,18.35 2.32,18.334 2,18.294 C3.808,19.446 5.968,20.126 8.28,20.126" id="shape" fill="#FFFFFF" fill-rule="nonzero"></path>
            </g>
        </g>
    </g>
</svg>