<?xml version="1.0" encoding="UTF-8"?>
<svg width="20px" height="20px" viewBox="0 0 20 20" version="1.1" xmlns="http://www.w3.org/2000/svg" xmlns:xlink="http://www.w3.org/1999/xlink">
    <title>verified_f</title>
    <g id="06_assets" stroke="none" stroke-width="1" fill="none" fill-rule="evenodd">
        <g id="04_25_22" transform="translate(-302.000000, -24.000000)">
            <g id="verified_f" transform="translate(302.000000, 24.000000)">
                <rect id="frame" x="0" y="0" width="20" height="20"></rect>
                <path d="M11.2825521,17.1354167 L12.2591146,16.1588542 C12.3502604,16.0677083 12.4283854,16.0416667 12.5455729,16.0416667 L13.9257812,16.0416667 C15.15625,16.0416667 15.7421875,15.4557292 15.7421875,14.2252604 L15.7421875,12.8450521 C15.7421875,12.7278646 15.7747396,12.6432292 15.859375,12.5585937 L16.8359375,11.5755208 C17.7083333,10.7096354 17.7018229,9.8828125 16.8359375,9.01692708 L15.859375,8.04036458 C15.7747396,7.94921875 15.7421875,7.87109375 15.7421875,7.75390625 L15.7421875,6.37369792 C15.7421875,5.14322917 15.15625,4.55729167 13.9257812,4.55729167 L12.5455729,4.55729167 C12.4283854,4.55729167 12.34375,4.52473958 12.2591146,4.44010417 L11.2825521,3.46354167 C10.4101562,2.59114583 9.58333333,2.59114583 8.71744792,3.47005208 L7.74088542,4.44010417 C7.65625,4.52473958 7.57161458,4.55729167 7.45442708,4.55729167 L6.07421875,4.55729167 C4.84375,4.55729167 4.2578125,5.13020833 4.2578125,6.37369792 L4.2578125,7.75390625 C4.2578125,7.87109375 4.22526042,7.95572917 4.140625,8.04036458 L3.1640625,9.01692708 C2.29166667,9.8828125 2.29817708,10.7096354 3.1640625,11.5755208 L4.140625,12.5585937 C4.22526042,12.6432292 4.2578125,12.7278646 4.2578125,12.8450521 L4.2578125,14.2252604 C4.2578125,15.4557292 4.84375,16.0416667 6.07421875,16.0416667 L7.45442708,16.0416667 C7.57161458,16.0416667 7.64973958,16.0677083 7.74088542,16.1588542 L8.71744792,17.1354167 C9.58333333,18.0078125 10.4101562,18.0013021 11.2825521,17.1354167 Z M9.27734375,13.5416667 C9.01041667,13.5416667 8.79557292,13.4179687 8.60026042,13.1770833 L7.03776042,11.2955729 C6.90104167,11.1328125 6.84244792,10.9700521 6.84244792,10.7942708 C6.84244792,10.4231771 7.14192708,10.1302083 7.50651042,10.1302083 C7.72786458,10.1302083 7.89713542,10.2148437 8.06640625,10.4231771 L9.2578125,11.9140625 L11.875,7.74739583 C12.03125,7.5 12.2265625,7.36979167 12.4609375,7.36979167 C12.8190104,7.36979167 13.1445313,7.63020833 13.1445313,8.00130208 C13.1445313,8.15755208 13.0729167,8.32682292 12.96875,8.48307292 L9.93489583,13.1705729 C9.77213542,13.4049479 9.54427083,13.5416667 9.27734375,13.5416667 Z" id="shape" fill="#00BBFF" fill-rule="nonzero"></path>
            </g>
        </g>
    </g>
</svg>