<svg width="24" height="24" viewBox="0 0 24 24" fill="none" xmlns="http://www.w3.org/2000/svg">
<path d="M13.2969 20.4063L15.1094 11.8125L15.4219 13.3828C15.5078 13.8203 15.7734 14.0391 16.2266 14.0391H19.2734C19.6797 14.0391 20 13.7266 20 13.3359C20 12.9141 19.6875 12.6094 19.2734 12.6094H16.6172L15.7578 8.75001C15.5938 8.04688 14.5312 8.05469 14.375 8.78126L12.5938 16.7344L10.6875 5.07813C10.5703 4.35938 9.51562 4.34376 9.35156 5.07032L7.72656 12.6094H4.72656C4.32031 12.6094 4 12.9297 4 13.3359C4 13.7266 4.32031 14.0391 4.72656 14.0391H8.20312C8.63281 14.0391 8.90625 13.8438 8.99219 13.4531L9.99219 8.88282L11.8984 20.4063C12.0234 21.1406 13.1484 21.1406 13.2969 20.4063Z" fill="currentColor" fill-opacity="0.6"/>
</svg>
