<?xml version="1.0" encoding="UTF-8"?>
<svg width="24px" height="24px" viewBox="0 0 24 24" version="1.1" xmlns="http://www.w3.org/2000/svg" xmlns:xlink="http://www.w3.org/1999/xlink">
    <title>close_black</title>
    <g id="06_assets" stroke="none" stroke-width="1" fill="none" fill-rule="evenodd">
        <g id="assets" transform="translate(-615.000000, -2520.000000)">
            <g id="close_black" transform="translate(615.000000, 2520.000000)">
                <rect id="frame" x="0" y="0" width="24" height="24"></rect>
                <path d="M18.078125,18.453125 C18.4765625,18.046875 18.4765625,17.3828125 18.0859375,16.9921875 L13.46875,12.375 L18.0859375,7.75 C18.4765625,7.359375 18.484375,6.6875 18.078125,6.2890625 C17.6796875,5.890625 17.0078125,5.890625 16.6171875,6.28125 L12,10.8984375 L7.375,6.28125 C7,5.8984375 6.3125,5.8828125 5.9140625,6.2890625 C5.515625,6.6875 5.5234375,7.375 5.90625,7.75 L10.5234375,12.375 L5.90625,16.9921875 C5.5234375,17.375 5.515625,18.0546875 5.9140625,18.453125 C6.3203125,18.8515625 7,18.84375 7.375,18.46875 L12,13.84375 L16.6171875,18.4609375 C17.0078125,18.8515625 17.6796875,18.8515625 18.078125,18.453125 Z" id="shape" fill="#141029" fill-rule="nonzero"></path>
            </g>
        </g>
    </g>
</svg>