<?xml version="1.0" encoding="UTF-8"?>
<svg width="24px" height="24px" viewBox="0 0 24 24" version="1.1" xmlns="http://www.w3.org/2000/svg" xmlns:xlink="http://www.w3.org/1999/xlink">
    <title>instagram</title>
    <g id="06_assets" stroke="none" stroke-width="1" fill="none" fill-rule="evenodd">
        <g id="assets" transform="translate(-739.000000, -2570.000000)">
            <g id="instagram" transform="translate(739.000000, 2570.000000)">
                <rect id="frame" x="0" y="0" width="24" height="24"></rect>
                <path d="M13.0275584,2.00077955 C14.8279528,2.00404728 15.2087532,2.01846387 16.1229872,2.06017771 C17.1873706,2.10872478 17.9143063,2.27778605 18.55038,2.5250069 C19.2079684,2.78052401 19.7656443,3.12245728 20.3216134,3.67838663 C20.8775427,4.23435568 21.219476,4.79203161 21.4750328,5.44962002 C21.722214,6.0856937 21.8912752,6.81262938 21.9398223,7.87701279 C21.9815361,8.79124679 21.9959527,9.17204719 21.9992204,10.9724666 L21.9999548,11.7179831 L21.9999548,11.7179831 L22,12.0000198 C22,12.0970133 21.9999853,12.1909771 21.9999548,12.2820525 L21.9992204,13.0275584 C21.9959527,14.8279528 21.9815361,15.2087532 21.9398223,16.1229872 C21.8912752,17.1873706 21.722214,17.9143063 21.4750328,18.55038 C21.219476,19.2079684 20.8775427,19.7656443 20.3216134,20.3216134 C19.7656443,20.8775427 19.2079684,21.219476 18.55038,21.4750328 C17.9143063,21.722214 17.1873706,21.8912752 16.1229872,21.9398223 C15.2087532,21.9815361 14.8279528,21.9959527 13.0275584,21.9992204 L12.2820525,21.9999548 L12.2820525,21.9999548 L12.0000198,22 C11.903025,22 11.8090598,21.9999853 11.7179831,21.9999548 L10.9724666,21.9992204 C9.17204719,21.9959527 8.79124679,21.9815361 7.87701279,21.9398223 C6.81262938,21.8912752 6.0856937,21.722214 5.44962002,21.4750328 C4.79203161,21.219476 4.23435568,20.8775427 3.67838663,20.3216134 C3.12245728,19.7656443 2.78052401,19.2079684 2.5250069,18.55038 C2.27778605,17.9143063 2.10872478,17.1873706 2.06017771,16.1229872 C2.01846387,15.2087532 2.00404728,14.8279528 2.00077955,13.0275584 L2.00077955,10.9724666 C2.00404728,9.17204719 2.01846387,8.79124679 2.06017771,7.87701279 C2.10872478,6.81262938 2.27778605,6.0856937 2.5250069,5.44962002 C2.78052401,4.79203161 3.12245728,4.23435568 3.67838663,3.67838663 C4.23435568,3.12245728 4.79203161,2.78052401 5.44962002,2.5250069 C6.0856937,2.27778605 6.81262938,2.10872478 7.87701279,2.06017771 C8.79124679,2.01846387 9.17204719,2.00404728 10.9724666,2.00077955 Z M12.5558839,3.80197777 L11.4441476,3.80197777 C9.88522956,3.80308669 9.27066715,3.80964184 8.68431013,3.82985275 L8.48864571,3.83710674 C8.32436803,3.84359198 8.15441218,3.85120129 7.95914187,3.86011063 C6.98415175,3.9045691 6.45465931,4.06747764 6.10228624,4.2044256 C5.635512,4.38583204 5.30239103,4.60252738 4.95247906,4.95247906 C4.60252738,5.30239103 4.38583204,5.635512 4.2044256,6.10228624 C4.06747764,6.45465931 3.9045691,6.98415175 3.86011063,7.95914187 C3.85120129,8.15441218 3.84359198,8.32436803 3.83710674,8.48864571 L3.82985275,8.68431013 C3.80964184,9.27066715 3.80308669,9.88522956 3.80197777,11.4441476 L3.80197777,12.5558839 C3.80308669,14.1147793 3.80964184,14.7293353 3.82985275,15.3156906 L3.83710674,15.5113545 C3.84359198,15.675632 3.85120129,15.8455878 3.86011063,16.0408581 C3.9045691,17.0158483 4.06747764,17.5453407 4.2044256,17.8977138 C4.38583204,18.364488 4.60256708,18.697609 4.95247906,19.0475209 C5.30239103,19.3974726 5.635512,19.614168 6.10228624,19.7955744 C6.45465931,19.9325224 6.98415175,20.0954309 7.95914187,20.1398894 C8.15439012,20.1487987 8.32432528,20.156408 8.48858515,20.1628933 L8.68422966,20.1701473 C9.27053169,20.1903582 9.88508419,20.1969133 11.444108,20.1980222 L12.5559241,20.1980222 C14.1149287,20.1969133 14.7294921,20.1903582 15.315788,20.1701473 L15.5114297,20.1628933 C15.6756867,20.156408 15.8456172,20.1487987 16.0408581,20.1398894 C17.0158483,20.0954309 17.5453407,19.9325224 17.8977138,19.7955744 C18.364488,19.614168 18.697609,19.3974726 19.0475209,19.0475209 C19.3974726,18.697609 19.614168,18.364488 19.7955744,17.8977138 C19.9325224,17.5453407 20.0954309,17.0158483 20.1398894,16.0408581 C20.1487987,15.8455878 20.156408,15.675632 20.1628933,15.5113545 L20.1701473,15.3156906 C20.1903582,14.7293353 20.1969133,14.1147793 20.1980222,12.5558839 L20.1980222,11.4441476 C20.1969133,9.88522956 20.1903582,9.27066715 20.1701473,8.68431013 L20.1628933,8.48864571 C20.156408,8.32436803 20.1487987,8.15441218 20.1398894,7.95914187 C20.0954309,6.98415175 19.9325224,6.45465931 19.7955744,6.10228624 C19.614168,5.635512 19.3974726,5.30239103 19.0475209,4.95247906 C18.697609,4.60252738 18.364488,4.38583204 17.8977138,4.2044256 C17.5453407,4.06747764 17.0158483,3.9045691 16.0408581,3.86011063 C15.8455878,3.85120129 15.675632,3.84359198 15.5113545,3.83710674 L15.3156906,3.82985275 C14.7293353,3.80964184 14.1147793,3.80308669 12.5558839,3.80197777 Z M12.0000198,6.86486808 C14.8360733,6.86486808 17.1351319,9.16392671 17.1351319,12.0000198 C17.1351319,14.8360733 14.8360733,17.1351319 12.0000198,17.1351319 C9.16392671,17.1351319 6.86486808,14.8360733 6.86486808,12.0000198 C6.86486808,9.16392671 9.16392671,6.86486808 12.0000198,6.86486808 Z M12.0000198,8.66666667 C10.1590422,8.66666667 8.66666667,10.1590422 8.66666667,12.0000198 C8.66666667,13.8409578 10.1590422,15.3333333 12.0000198,15.3333333 C13.8409578,15.3333333 15.3333333,13.8409578 15.3333333,12.0000198 C15.3333333,10.1590422 13.8409578,8.66666667 12.0000198,8.66666667 Z M17.3380134,5.46196518 C18.0007621,5.46196518 18.5380348,5.99923785 18.5380348,6.66198662 C18.5380348,7.32473538 18.0007621,7.86196836 17.3380134,7.86196836 C16.6753043,7.86196836 16.1380316,7.32473538 16.1380316,6.66198662 C16.1380316,5.99923785 16.6753043,5.46196518 17.3380134,5.46196518 Z" id="shape" fill="#FFFFFF"></path>
            </g>
        </g>
    </g>
</svg>