<?xml version="1.0" encoding="UTF-8"?>
<svg width="24px" height="24px" viewBox="0 0 24 24" version="1.1" xmlns="http://www.w3.org/2000/svg" xmlns:xlink="http://www.w3.org/1999/xlink">
    <title>moon_f</title>
    <g id="06_assets" stroke="none" stroke-width="1" fill="none" fill-rule="evenodd">
        <g id="assets" transform="translate(-583.000000, -2468.000000)">
            <g id="moon_f" transform="translate(583.000000, 2468.000000)">
                <rect id="Rectangle" x="0" y="0" width="24" height="24"></rect>
                <path d="M12,3 C7.03,3 3,7.03 3,12 C3,16.97 7.03,21 12,21 C16.97,21 21,16.97 21,12 C21,11.54 20.96,11.08 20.9,10.64 C19.92,12.01 18.32,12.9 16.5,12.9 C13.52,12.9 11.1,10.48 11.1,7.5 C11.1,5.69 11.99,4.08 13.36,3.1 C12.92,3.04 12.46,3 12,3 L12,3 Z" id="Path" fill="#00FFAA" fill-rule="nonzero"></path>
            </g>
        </g>
    </g>
</svg>