<?xml version="1.0" encoding="UTF-8"?>
<svg width="24px" height="24px" viewBox="0 0 24 24" version="1.1" xmlns="http://www.w3.org/2000/svg" xmlns:xlink="http://www.w3.org/1999/xlink">
    <title>chevron_up</title>
    <g id="06_assets" stroke="none" stroke-width="1" fill="none" fill-rule="evenodd">
        <g id="04_25_22" transform="translate(-272.000000, -19.000000)">
            <g id="chevron_up" transform="translate(272.000000, 19.000000)">
                <rect id="frame" x="0" y="0" width="24" height="24"></rect>
                <path d="M17.9570312,16.2421875 C18.5585938,16.2421875 19.0429688,15.75 19.0429688,15.1484375 C19.0429688,14.84375 18.9335938,14.59375 18.7304688,14.390625 L12.8789062,8.3984375 C12.6210938,8.1328125 12.3320312,8 11.9960938,8 C11.6679688,8 11.3867188,8.125 11.1210938,8.390625 L5.26953125,14.390625 C5.06640625,14.59375 4.95703125,14.8515625 4.95703125,15.1484375 C4.95703125,15.75 5.44140625,16.2421875 6.04296875,16.2421875 C6.34765625,16.2421875 6.62109375,16.1171875 6.83984375,15.8984375 L12.0039062,10.5859375 L17.1601562,15.8984375 C17.3710938,16.125 17.6601562,16.2421875 17.9570312,16.2421875 Z" id="shape" fill="#E0E0FF" fill-rule="nonzero"></path>
            </g>
        </g>
    </g>
</svg>