<?xml version="1.0" encoding="UTF-8"?>
<svg width="24px" height="24px" viewBox="0 0 24 24" version="1.1" xmlns="http://www.w3.org/2000/svg" xmlns:xlink="http://www.w3.org/1999/xlink">
    <title>more</title>
    <g id="06_assets" stroke="none" stroke-width="1" fill="none" fill-rule="evenodd">
        <g id="04_25_22" transform="translate(-370.000000, -24.000000)">
            <g id="more" transform="translate(370.000000, 24.000000)">
                <rect id="frame" x="0" y="0" width="24" height="24"></rect>
                <path d="M6.13671875,14.1015625 C7.08203125,14.1015625 7.87890625,13.3046875 7.87890625,12.3671875 C7.87890625,11.390625 7.12109375,10.6328125 6.13671875,10.6328125 C5.18359375,10.6328125 4.40234375,11.40625 4.40234375,12.3671875 C4.40234375,13.3046875 5.18359375,14.1015625 6.13671875,14.1015625 Z M11.9960938,14.1015625 C12.9414062,14.1015625 13.7304688,13.3046875 13.7304688,12.3671875 C13.7304688,11.390625 12.9726562,10.6328125 11.9960938,10.6328125 C11.0429688,10.6328125 10.2695312,11.40625 10.2695312,12.3671875 C10.2695312,13.3046875 11.0429688,14.1015625 11.9960938,14.1015625 Z M17.8632812,14.1015625 C18.8007812,14.1015625 19.5976562,13.3046875 19.5976562,12.3671875 C19.5976562,11.390625 18.8398438,10.6328125 17.8632812,10.6328125 C16.9023438,10.6328125 16.1210938,11.40625 16.1210938,12.3671875 C16.1210938,13.3046875 16.9023438,14.1015625 17.8632812,14.1015625 Z" id="shape" fill="#FFFFFF" fill-rule="nonzero"></path>
            </g>
        </g>
    </g>
</svg>